<?xml version="1.0" encoding="utf-8"?>
<!-- Generator: Adobe Illustrator 21.0.0, SVG Export Plug-In . SVG Version: 6.00 Build 0)  -->
<svg version="1.1" id="Layer_1" xmlns="http://www.w3.org/2000/svg" xmlns:xlink="http://www.w3.org/1999/xlink" x="0px" y="0px"
	 viewBox="0 0 288 288" enable-background="new 0 0 288 288" xml:space="preserve">
<g>
	<rect x="0" y="0" fill-rule="evenodd" clip-rule="evenodd" fill="#FFFFFF" width="288" height="288"/>
	<g>
		<g>
			<polygon fill-rule="evenodd" clip-rule="evenodd" fill="#FF8000" points="134.9,58.3 123.9,33.1 71.2,33.1 82.2,58.3 			"/>
			<polygon fill-rule="evenodd" clip-rule="evenodd" fill="#2B2B2B" points="245.3,41.2 71.7,41.2 71.7,77.7 229.3,77.7 			"/>
			<polygon fill-rule="evenodd" clip-rule="evenodd" fill="#FFBB00" points="100.7,85.8 48,85.8 71.2,33.1 123.9,33.1 			"/>
			<g>
				<polygon fill="#FFBB00" points="133.8,65.4 129.4,63.1 125,65.3 125.7,60.4 122.3,56.9 127.2,56.1 129.5,51.7 131.7,56.1 
					136.6,57 133.1,60.5 				"/>
				<polygon fill="#FFBB00" points="155.6,65.4 151.2,63.1 146.7,65.3 147.5,60.4 144,56.9 148.9,56.1 151.2,51.7 153.5,56.1 
					158.4,57 154.9,60.5 				"/>
				<polygon fill="#FFBB00" points="177.3,65.4 172.9,63.1 168.5,65.3 169.3,60.4 165.8,56.9 170.7,56.1 173,51.7 175.2,56.1 
					180.1,57 176.6,60.5 				"/>
				<polygon fill="#FFBB00" points="199.1,65.4 194.7,63.1 190.3,65.3 191,60.4 187.6,56.9 192.4,56.1 194.7,51.7 197,56.1 
					201.9,57 198.4,60.5 				"/>
				<polygon fill="#FFBB00" points="220.9,65.4 216.4,63.1 212,65.3 212.8,60.4 209.3,56.9 214.2,56.1 216.5,51.7 218.8,56.1 
					223.6,57 220.2,60.5 				"/>
			</g>
			<g>
				<path fill="#2B2B2B" d="M72.6,64.2l1.4-1.7c1,1,2.1,1.6,3.3,1.6c1.6,0,2.6-0.9,2.6-2.2v0c0-1.3-1.1-2.2-2.7-2.2
					c-0.9,0-1.7,0.3-2.4,0.6l-1.4-0.9l0.4-6.4h7.8v2h-5.8l-0.2,3c0.6-0.2,1.2-0.4,2.1-0.4c2.5,0,4.5,1.3,4.5,4.1v0
					c0,2.7-1.9,4.4-4.8,4.4C75.4,66.2,73.9,65.4,72.6,64.2z"/>
				<path fill="#2B2B2B" d="M84.6,63.4H87V66h-2.5V63.4z"/>
				<path fill="#2B2B2B" d="M89,59.5L89,59.5c0-3.7,2.3-6.8,5.7-6.8c3.4,0,5.6,3,5.6,6.7v0c0,3.7-2.3,6.7-5.7,6.7S89,63.2,89,59.5z
					 M97.9,59.5L97.9,59.5c0-2.6-1.3-4.7-3.3-4.7s-3.3,2-3.3,4.6v0c0,2.6,1.3,4.7,3.3,4.7C96.7,64.1,97.9,62.1,97.9,59.5z"/>
			</g>
		</g>
		<g>
			<polygon fill-rule="evenodd" clip-rule="evenodd" fill="#FF8000" points="71.7,116 66.1,103.2 39.4,103.2 45,116 			"/>
			<polygon fill-rule="evenodd" clip-rule="evenodd" fill="#2B2B2B" points="127.7,107.3 39.7,107.3 39.7,125.8 119.5,125.8 			"/>
			<polygon fill-rule="evenodd" clip-rule="evenodd" fill="#FFBB00" points="54.4,129.9 27.7,129.9 39.4,103.2 66.1,103.2 			"/>
			<g>
				<polygon fill="#FFBB00" points="71.2,119.6 68.9,118.4 66.7,119.6 67.1,117.1 65.3,115.3 67.8,114.9 69,112.7 70.1,114.9 
					72.6,115.3 70.8,117.1 				"/>
				<polygon fill="#FFBB00" points="82.2,119.6 80,118.4 77.7,119.6 78.1,117.1 76.3,115.3 78.8,114.9 80,112.7 81.1,114.9 
					83.6,115.3 81.8,117.1 				"/>
				<polygon fill="#FFBB00" points="93.2,119.6 91,118.4 88.7,119.6 89.1,117.1 87.4,115.3 89.8,114.9 91,112.7 92.2,114.9 
					94.6,115.3 92.9,117.1 				"/>
				<polygon fill="#FFBB00" points="104.2,119.6 102,118.4 99.8,119.6 100.1,117.1 98.4,115.3 100.9,114.9 102,112.7 103.2,114.9 
					105.6,115.3 103.9,117.1 				"/>
				<polygon fill="#828282" points="115.3,119.6 113,118.4 110.8,119.6 111.2,117.1 109.4,115.3 111.9,114.9 113.1,112.7 
					114.2,114.9 116.7,115.3 114.9,117.1 				"/>
				<polygon fill="#FFBB00" points="113,112.7 111.9,114.9 109.4,115.3 111.2,117.1 110.8,119.6 113,118.4 113,118.5 				"/>
			</g>
			<g>
				<path fill="#2B2B2B" d="M43.7,118.4h-3.3l-0.2-0.8l3.7-4.3h1v4.2h0.9v0.9h-0.9v1.5h-1.1V118.4z M43.7,117.5v-2.6l-2.2,2.6H43.7z
					"/>
				<path fill="#2B2B2B" d="M46.9,118.6h1.3v1.3h-1.3V118.6z"/>
				<path fill="#2B2B2B" d="M49.2,119l0.7-0.8c0.5,0.5,1.1,0.8,1.7,0.8c0.8,0,1.3-0.5,1.3-1.1v0c0-0.7-0.6-1.1-1.4-1.1
					c-0.5,0-0.9,0.1-1.2,0.3l-0.7-0.5l0.2-3.2h3.9v1h-2.9l-0.1,1.5c0.3-0.1,0.6-0.2,1-0.2c1.3,0,2.3,0.7,2.3,2.1v0
					c0,1.3-1,2.2-2.4,2.2C50.6,120,49.8,119.6,49.2,119z"/>
			</g>
		</g>
		<g>
			<polygon fill-rule="evenodd" clip-rule="evenodd" fill="#FF8000" points="71.7,147.8 66.1,135 39.4,135 45,147.8 			"/>
			<polygon fill-rule="evenodd" clip-rule="evenodd" fill="#2B2B2B" points="127.7,139.1 39.7,139.1 39.7,157.6 119.5,157.6 			"/>
			<polygon fill-rule="evenodd" clip-rule="evenodd" fill="#FFBB00" points="54.4,161.7 27.7,161.7 39.4,135 66.1,135 			"/>
			<g>
				<polygon fill="#FFBB00" points="71.2,151.4 68.9,150.2 66.7,151.4 67.1,148.9 65.3,147.1 67.8,146.7 69,144.5 70.1,146.7 
					72.6,147.1 70.8,148.9 				"/>
				<polygon fill="#FFBB00" points="82.2,151.4 80,150.2 77.7,151.4 78.1,148.9 76.3,147.1 78.8,146.7 80,144.5 81.1,146.7 
					83.6,147.1 81.8,148.9 				"/>
				<polygon fill="#FFBB00" points="93.2,151.4 91,150.2 88.7,151.4 89.1,148.9 87.4,147.1 89.8,146.7 91,144.5 92.2,146.7 
					94.6,147.1 92.9,148.9 				"/>
				<polygon fill="#FFBB00" points="104.2,151.4 102,150.2 99.8,151.4 100.1,148.9 98.4,147.1 100.9,146.7 102,144.5 103.2,146.7 
					105.6,147.1 103.9,148.9 				"/>
				<polygon fill="#828282" points="115.3,151.4 113,150.2 110.8,151.4 111.2,148.9 109.4,147.1 111.9,146.7 113.1,144.5 
					114.2,146.7 116.7,147.1 114.9,148.9 				"/>
			</g>
			<g>
				<path fill="#2B2B2B" d="M43.3,150.2H40l-0.2-0.8l3.7-4.3h1v4.2h0.9v0.9h-0.9v1.5h-1.1V150.2z M43.3,149.3v-2.6l-2.2,2.6H43.3z"
					/>
				<path fill="#2B2B2B" d="M46.5,150.4h1.3v1.3h-1.3V150.4z"/>
				<path fill="#2B2B2B" d="M48.7,148.4L48.7,148.4c0-1.9,1.1-3.4,2.9-3.4c1.7,0,2.9,1.5,2.9,3.4v0c0,1.9-1.1,3.4-2.9,3.4
					C49.8,151.8,48.7,150.3,48.7,148.4z M53.3,148.4L53.3,148.4c0-1.3-0.7-2.4-1.7-2.4c-1,0-1.7,1-1.7,2.3v0c0,1.3,0.7,2.4,1.7,2.4
					C52.6,150.8,53.3,149.7,53.3,148.4z"/>
			</g>
		</g>
		<g>
			<polygon fill-rule="evenodd" clip-rule="evenodd" fill="#FF8000" points="71.7,179.6 66.1,166.8 39.4,166.8 45,179.6 			"/>
			<polygon fill-rule="evenodd" clip-rule="evenodd" fill="#2B2B2B" points="127.7,170.9 39.7,170.9 39.7,189.4 119.5,189.4 			"/>
			<polygon fill-rule="evenodd" clip-rule="evenodd" fill="#FFBB00" points="54.4,193.5 27.7,193.5 39.4,166.8 66.1,166.8 			"/>
			<g>
				<polygon fill="#FFBB00" points="71.2,183.2 68.9,182.1 66.7,183.2 67.1,180.7 65.3,178.9 67.8,178.5 69,176.3 70.1,178.5 
					72.6,178.9 70.8,180.7 				"/>
				<polygon fill="#FFBB00" points="82.2,183.2 80,182.1 77.7,183.2 78.1,180.7 76.3,178.9 78.8,178.5 80,176.3 81.1,178.5 
					83.6,178.9 81.8,180.7 				"/>
				<polygon fill="#FFBB00" points="93.2,183.2 91,182.1 88.7,183.2 89.1,180.7 87.4,178.9 89.8,178.5 91,176.3 92.2,178.5 
					94.6,178.9 92.9,180.7 				"/>
				<polygon fill="#828282" points="115.3,183.2 113,182.1 110.8,183.2 111.2,180.7 109.4,178.9 111.9,178.5 113.1,176.3 
					114.2,178.5 116.7,178.9 114.9,180.7 				"/>
				<g>
					<polygon fill="#828282" points="104.2,183.2 102,182.1 99.8,183.2 100.1,180.7 98.4,178.9 100.9,178.5 102,176.3 103.2,178.5 
						105.6,178.9 103.9,180.7 					"/>
					<polygon fill="#FFBB00" points="102,176.3 100.9,178.5 98.4,178.9 100.1,180.7 99.8,183.2 102,182.1 102,182.1 					"/>
				</g>
			</g>
			<g>
				<path fill="#2B2B2B" d="M40.5,182.4l0.8-0.8c0.5,0.6,1,0.9,1.7,0.9c0.6,0,1.1-0.4,1.1-1v0c0-0.6-0.6-1-1.5-1h-0.5l-0.2-0.7
					l1.8-1.9h-2.8v-1h4.4v0.9l-1.8,1.9c1,0.1,1.9,0.6,1.9,1.9v0c0,1.2-0.9,2.1-2.3,2.1C41.9,183.6,41.1,183.1,40.5,182.4z"/>
				<path fill="#2B2B2B" d="M46.6,182.2h1.3v1.3h-1.3V182.2z"/>
				<path fill="#2B2B2B" d="M48.9,182.6l0.7-0.8c0.5,0.5,1.1,0.8,1.7,0.8c0.8,0,1.3-0.5,1.3-1.1v0c0-0.7-0.6-1.1-1.4-1.1
					c-0.5,0-0.9,0.1-1.2,0.3l-0.7-0.5l0.2-3.2h3.9v1h-2.9l-0.1,1.5c0.3-0.1,0.6-0.2,1-0.2c1.3,0,2.3,0.7,2.3,2.1v0
					c0,1.3-1,2.2-2.4,2.2C50.3,183.6,49.5,183.2,48.9,182.6z"/>
			</g>
		</g>
		<g>
			<polygon fill-rule="evenodd" clip-rule="evenodd" fill="#FF8000" points="71.7,211.4 66.1,198.6 39.4,198.6 45,211.4 			"/>
			<polygon fill-rule="evenodd" clip-rule="evenodd" fill="#2B2B2B" points="127.7,202.7 39.7,202.7 39.7,221.2 119.5,221.2 			"/>
			<polygon fill-rule="evenodd" clip-rule="evenodd" fill="#FFBB00" points="54.4,225.3 27.7,225.3 39.4,198.6 66.1,198.6 			"/>
			<g>
				<polygon fill="#FFBB00" points="71.2,215 68.9,213.9 66.7,215 67.1,212.5 65.3,210.7 67.8,210.3 69,208.1 70.1,210.3 
					72.6,210.7 70.8,212.5 				"/>
				<polygon fill="#FFBB00" points="82.2,215 80,213.9 77.7,215 78.1,212.5 76.3,210.7 78.8,210.3 80,208.1 81.1,210.3 83.6,210.7 
					81.8,212.5 				"/>
				<polygon fill="#FFBB00" points="93.2,215 91,213.9 88.7,215 89.1,212.5 87.4,210.7 89.8,210.3 91,208.1 92.2,210.3 94.6,210.7 
					92.9,212.5 				"/>
				<polygon fill="#828282" points="104.2,215 102,213.9 99.8,215 100.1,212.5 98.4,210.7 100.9,210.3 102,208.1 103.2,210.3 
					105.6,210.7 103.9,212.5 				"/>
				<polygon fill="#828282" points="115.3,215 113,213.9 110.8,215 111.2,212.5 109.4,210.7 111.9,210.3 113.1,208.1 114.2,210.3 
					116.7,210.7 114.9,212.5 				"/>
			</g>
			<g>
				<path fill="#2B2B2B" d="M40.1,214.2l0.8-0.8c0.5,0.6,1,0.9,1.7,0.9c0.6,0,1.1-0.4,1.1-1v0c0-0.6-0.6-1-1.5-1h-0.5l-0.2-0.7
					l1.8-1.9h-2.8v-1h4.4v0.9l-1.8,1.9c1,0.1,1.9,0.6,1.9,1.9v0c0,1.2-0.9,2.1-2.3,2.1C41.5,215.4,40.7,214.9,40.1,214.2z"/>
				<path fill="#2B2B2B" d="M46.2,214h1.3v1.3h-1.3V214z"/>
				<path fill="#2B2B2B" d="M48.4,212L48.4,212c0-1.9,1.1-3.4,2.9-3.4c1.7,0,2.9,1.5,2.9,3.4v0c0,1.9-1.1,3.4-2.9,3.4
					C49.6,215.4,48.4,213.9,48.4,212z M53,212L53,212c0-1.3-0.7-2.4-1.7-2.4c-1,0-1.7,1-1.7,2.3v0c0,1.3,0.7,2.4,1.7,2.4
					C52.3,214.4,53,213.3,53,212z"/>
			</g>
		</g>
		<g>
			<polygon fill-rule="evenodd" clip-rule="evenodd" fill="#FF8000" points="71.7,243.2 66.1,230.4 39.4,230.4 45,243.2 			"/>
			<polygon fill-rule="evenodd" clip-rule="evenodd" fill="#2B2B2B" points="127.7,234.5 39.7,234.5 39.7,253 119.5,253 			"/>
			<polygon fill-rule="evenodd" clip-rule="evenodd" fill="#FFBB00" points="54.4,257.1 27.7,257.1 39.4,230.4 66.1,230.4 			"/>
			<g>
				<polygon fill="#FFBB00" points="71.2,246.8 68.9,245.7 66.7,246.8 67.1,244.3 65.3,242.5 67.8,242.1 69,239.9 70.1,242.1 
					72.6,242.5 70.8,244.3 				"/>
				<polygon fill="#FFBB00" points="82.2,246.8 80,245.7 77.7,246.8 78.1,244.3 76.3,242.5 78.8,242.1 80,239.9 81.1,242.1 
					83.6,242.5 81.8,244.3 				"/>
				<polygon fill="#828282" points="104.2,246.8 102,245.7 99.8,246.8 100.1,244.3 98.4,242.5 100.9,242.1 102,239.9 103.2,242.1 
					105.6,242.5 103.9,244.3 				"/>
				<g>
					<polygon fill="#828282" points="115.3,246.8 113,245.7 110.8,246.8 111.2,244.3 109.4,242.5 111.9,242.1 113.1,239.9 
						114.2,242.1 116.7,242.5 114.9,244.3 					"/>
				</g>
				<g>
					<polygon fill="#828282" points="93.2,246.8 91,245.7 88.7,246.8 89.1,244.3 87.4,242.5 89.8,242.1 91,239.9 92.2,242.1 
						94.6,242.5 92.9,244.3 					"/>
					<polygon fill="#FFBB00" points="91,239.9 89.8,242.1 87.4,242.5 89.1,244.3 88.7,246.8 91,245.7 91,245.7 					"/>
				</g>
			</g>
			<g>
				<path fill="#2B2B2B" d="M40.6,246.2l2.3-1.9c0.9-0.8,1.2-1.2,1.2-1.8c0-0.6-0.5-1-1.1-1c-0.6,0-1,0.3-1.5,1l-0.8-0.6
					c0.6-0.9,1.3-1.4,2.4-1.4c1.3,0,2.2,0.8,2.2,2v0c0,1-0.5,1.6-1.7,2.5l-1.4,1.1h3.1v1h-4.8V246.2z"/>
				<path fill="#2B2B2B" d="M46.5,245.8h1.3v1.3h-1.3V245.8z"/>
				<path fill="#2B2B2B" d="M48.9,246.2l0.7-0.8c0.5,0.5,1.1,0.8,1.7,0.8c0.8,0,1.3-0.5,1.3-1.1v0c0-0.7-0.6-1.1-1.4-1.1
					c-0.5,0-0.9,0.1-1.2,0.3l-0.7-0.5l0.2-3.2h3.9v1h-2.9l-0.1,1.5c0.3-0.1,0.6-0.2,1-0.2c1.3,0,2.3,0.7,2.3,2.1v0
					c0,1.3-1,2.2-2.4,2.2C50.3,247.2,49.5,246.8,48.9,246.2z"/>
			</g>
		</g>
		<g>
			<polygon fill-rule="evenodd" clip-rule="evenodd" fill="#FF8000" points="196.7,116 191.1,103.2 164.4,103.2 170,116 			"/>
			<polygon fill-rule="evenodd" clip-rule="evenodd" fill="#2B2B2B" points="252.7,107.3 164.7,107.3 164.7,125.8 244.5,125.8 			
				"/>
			<polygon fill-rule="evenodd" clip-rule="evenodd" fill="#FFBB00" points="179.4,129.9 152.7,129.9 164.4,103.2 191.1,103.2 			
				"/>
			<g>
				<polygon fill="#FFBB00" points="196.2,119.6 193.9,118.4 191.7,119.6 192.1,117.1 190.3,115.3 192.8,114.9 194,112.7 
					195.1,114.9 197.6,115.3 195.8,117.1 				"/>
				<polygon fill="#FFBB00" points="207.2,119.6 205,118.4 202.7,119.6 203.1,117.1 201.3,115.3 203.8,114.9 205,112.7 206.1,114.9 
					208.6,115.3 206.8,117.1 				"/>
				<polygon fill="#828282" points="218.2,119.6 216,118.4 213.7,119.6 214.1,117.1 212.4,115.3 214.8,114.9 216,112.7 217.2,114.9 
					219.6,115.3 217.9,117.1 				"/>
				<polygon fill="#828282" points="229.2,119.6 227,118.4 224.8,119.6 225.1,117.1 223.4,115.3 225.9,114.9 227,112.7 228.2,114.9 
					230.6,115.3 228.9,117.1 				"/>
				<polygon fill="#828282" points="240.3,119.6 238,118.4 235.8,119.6 236.2,117.1 234.4,115.3 236.9,114.9 238.1,112.7 
					239.2,114.9 241.7,115.3 239.9,117.1 				"/>
			</g>
			<g>
				<path fill="#2B2B2B" d="M165.2,119l2.3-1.9c0.9-0.8,1.2-1.2,1.2-1.8c0-0.6-0.5-1-1.1-1c-0.6,0-1,0.3-1.5,1l-0.8-0.6
					c0.6-0.9,1.3-1.4,2.4-1.4c1.3,0,2.2,0.8,2.2,2v0c0,1-0.5,1.6-1.7,2.5l-1.4,1.1h3.1v1h-4.8V119z"/>
				<path fill="#2B2B2B" d="M171.2,118.6h1.3v1.3h-1.3V118.6z"/>
				<path fill="#2B2B2B" d="M173.4,116.6L173.4,116.6c0-1.9,1.1-3.4,2.9-3.4c1.7,0,2.9,1.5,2.9,3.4v0c0,1.9-1.1,3.4-2.9,3.4
					C174.5,120,173.4,118.5,173.4,116.6z M177.9,116.6L177.9,116.6c0-1.3-0.7-2.4-1.7-2.4c-1,0-1.7,1-1.7,2.3v0
					c0,1.3,0.7,2.4,1.7,2.4C177.3,118.9,177.9,117.9,177.9,116.6z"/>
			</g>
		</g>
		<g>
			<polygon fill-rule="evenodd" clip-rule="evenodd" fill="#FF8000" points="196.7,147.8 191.1,135 164.4,135 170,147.8 			"/>
			<polygon fill-rule="evenodd" clip-rule="evenodd" fill="#2B2B2B" points="252.7,139.1 164.7,139.1 164.7,157.6 244.5,157.6 			
				"/>
			<polygon fill-rule="evenodd" clip-rule="evenodd" fill="#FFBB00" points="179.4,161.7 152.7,161.7 164.4,135 191.1,135 			"/>
			<g>
				<polygon fill="#FFBB00" points="196.2,151.4 193.9,150.2 191.7,151.4 192.1,148.9 190.3,147.1 192.8,146.7 194,144.5 
					195.1,146.7 197.6,147.1 195.8,148.9 				"/>
				<polygon fill="#828282" points="218.2,151.4 216,150.2 213.7,151.4 214.1,148.9 212.4,147.1 214.8,146.7 216,144.5 217.2,146.7 
					219.6,147.1 217.9,148.9 				"/>
				<polygon fill="#828282" points="229.2,151.4 227,150.2 224.8,151.4 225.1,148.9 223.4,147.1 225.9,146.7 227,144.5 228.2,146.7 
					230.6,147.1 228.9,148.9 				"/>
				<g>
					<polygon fill="#828282" points="240.3,151.4 238,150.2 235.8,151.4 236.2,148.9 234.4,147.1 236.9,146.7 238.1,144.5 
						239.2,146.7 241.7,147.1 239.9,148.9 					"/>
				</g>
				<g>
					<polygon fill="#828282" points="207.2,151.4 205,150.2 202.7,151.4 203.1,148.9 201.3,147.1 203.8,146.7 205,144.5 
						206.1,146.7 208.6,147.1 206.8,148.9 					"/>
					<polygon fill="#FFBB00" points="205,144.5 203.8,146.7 201.3,147.1 203.1,148.9 202.7,151.4 205,150.2 205,150.3 					"/>
				</g>
			</g>
			<g>
				<path fill="#2B2B2B" d="M167.8,146.2l-1.2,0.3l-0.2-0.9l1.8-0.6h0.8v6.6h-1.1V146.2z"/>
				<path fill="#2B2B2B" d="M170.5,150.4h1.3v1.3h-1.3V150.4z"/>
				<path fill="#2B2B2B" d="M172.9,150.8l0.7-0.8c0.5,0.5,1.1,0.8,1.7,0.8c0.8,0,1.3-0.5,1.3-1.1v0c0-0.7-0.6-1.1-1.4-1.1
					c-0.5,0-0.9,0.1-1.2,0.3l-0.7-0.5l0.2-3.2h3.9v1h-2.9l-0.1,1.5c0.3-0.1,0.6-0.2,1-0.2c1.3,0,2.3,0.7,2.3,2.1v0
					c0,1.3-1,2.2-2.4,2.2C174.3,151.8,173.5,151.4,172.9,150.8z"/>
			</g>
		</g>
		<g>
			<polygon fill-rule="evenodd" clip-rule="evenodd" fill="#FF8000" points="196.7,179.6 191.1,166.8 164.4,166.8 170,179.6 			"/>
			<polygon fill-rule="evenodd" clip-rule="evenodd" fill="#2B2B2B" points="252.7,170.9 164.7,170.9 164.7,189.4 244.5,189.4 			
				"/>
			<polygon fill-rule="evenodd" clip-rule="evenodd" fill="#FFBB00" points="179.4,193.5 152.7,193.5 164.4,166.8 191.1,166.8 			
				"/>
			<g>
				<polygon fill="#FFBB00" points="196.2,183.2 193.9,182.1 191.7,183.2 192.1,180.7 190.3,178.9 192.8,178.5 194,176.3 
					195.1,178.5 197.6,178.9 195.8,180.7 				"/>
				<polygon fill="#828282" points="207.2,183.2 205,182.1 202.7,183.2 203.1,180.7 201.3,178.9 203.8,178.5 205,176.3 206.1,178.5 
					208.6,178.9 206.8,180.7 				"/>
				<polygon fill="#828282" points="218.2,183.2 216,182.1 213.7,183.2 214.1,180.7 212.4,178.9 214.8,178.5 216,176.3 217.2,178.5 
					219.6,178.9 217.9,180.7 				"/>
				<polygon fill="#828282" points="229.2,183.2 227,182.1 224.8,183.2 225.1,180.7 223.4,178.9 225.9,178.5 227,176.3 228.2,178.5 
					230.6,178.9 228.9,180.7 				"/>
				<polygon fill="#828282" points="240.3,183.2 238,182.1 235.8,183.2 236.2,180.7 234.4,178.9 236.9,178.5 238.1,176.3 
					239.2,178.5 241.7,178.9 239.9,180.7 				"/>
			</g>
			<g>
				<path fill="#2B2B2B" d="M167.5,178l-1.2,0.3l-0.2-0.9l1.8-0.6h0.8v6.6h-1.1V178z"/>
				<path fill="#2B2B2B" d="M170.1,182.2h1.3v1.3h-1.3V182.2z"/>
				<path fill="#2B2B2B" d="M172.4,180.2L172.4,180.2c0-1.9,1.1-3.4,2.9-3.4c1.7,0,2.9,1.5,2.9,3.4v0c0,1.9-1.1,3.4-2.9,3.4
					C173.5,183.6,172.4,182.1,172.4,180.2z M176.9,180.2L176.9,180.2c0-1.3-0.7-2.4-1.7-2.4s-1.7,1-1.7,2.3v0c0,1.3,0.7,2.4,1.7,2.4
					C176.3,182.6,176.9,181.5,176.9,180.2z"/>
			</g>
		</g>
		<g>
			<polygon fill-rule="evenodd" clip-rule="evenodd" fill="#FF8000" points="196.7,211.4 191.1,198.6 164.4,198.6 170,211.4 			"/>
			<polygon fill-rule="evenodd" clip-rule="evenodd" fill="#2B2B2B" points="252.7,202.7 164.7,202.7 164.7,221.2 244.5,221.2 			
				"/>
			<polygon fill-rule="evenodd" clip-rule="evenodd" fill="#FFBB00" points="179.4,225.3 152.7,225.3 164.4,198.6 191.1,198.6 			
				"/>
			<g>
				<polygon fill="#828282" points="207.2,215 205,213.9 202.7,215 203.1,212.5 201.3,210.7 203.8,210.3 205,208.1 206.1,210.3 
					208.6,210.7 206.8,212.5 				"/>
				<polygon fill="#828282" points="218.2,215 216,213.9 213.7,215 214.1,212.5 212.4,210.7 214.8,210.3 216,208.1 217.2,210.3 
					219.6,210.7 217.9,212.5 				"/>
				<polygon fill="#828282" points="229.2,215 227,213.9 224.8,215 225.1,212.5 223.4,210.7 225.9,210.3 227,208.1 228.2,210.3 
					230.6,210.7 228.9,212.5 				"/>
				<g>
					<polygon fill="#828282" points="240.3,215 238,213.9 235.8,215 236.2,212.5 234.4,210.7 236.9,210.3 238.1,208.1 239.2,210.3 
						241.7,210.7 239.9,212.5 					"/>
				</g>
				<g>
					<polygon fill="#828282" points="196.2,215 193.9,213.9 191.7,215 192.1,212.5 190.3,210.7 192.8,210.3 194,208.1 195.1,210.3 
						197.6,210.7 195.8,212.5 					"/>
					<polygon fill="#FFBB00" points="193.9,208.1 192.8,210.3 190.3,210.7 192.1,212.5 191.7,215 193.9,213.9 193.9,213.9 					"/>
				</g>
			</g>
			<g>
				<path fill="#2B2B2B" d="M165.3,212L165.3,212c0-1.9,1.1-3.4,2.9-3.4c1.7,0,2.9,1.5,2.9,3.4v0c0,1.9-1.1,3.4-2.9,3.4
					C166.4,215.4,165.3,213.9,165.3,212z M169.8,212L169.8,212c0-1.3-0.7-2.4-1.7-2.4c-1,0-1.7,1-1.7,2.3v0c0,1.3,0.7,2.4,1.7,2.4
					C169.2,214.4,169.8,213.3,169.8,212z"/>
				<path fill="#2B2B2B" d="M172,214h1.3v1.3H172V214z"/>
				<path fill="#2B2B2B" d="M174.3,214.4l0.7-0.8c0.5,0.5,1.1,0.8,1.7,0.8c0.8,0,1.3-0.5,1.3-1.1v0c0-0.7-0.6-1.1-1.4-1.1
					c-0.5,0-0.9,0.1-1.2,0.3l-0.7-0.5l0.2-3.2h3.9v1h-2.9l-0.1,1.5c0.3-0.1,0.6-0.2,1-0.2c1.3,0,2.3,0.7,2.3,2.1v0
					c0,1.3-1,2.2-2.4,2.2C175.7,215.4,174.9,215,174.3,214.4z"/>
			</g>
		</g>
		<g>
			<polygon fill-rule="evenodd" clip-rule="evenodd" fill="#FF8000" points="196.7,243.2 191.1,230.4 164.4,230.4 170,243.2 			"/>
			<polygon fill-rule="evenodd" clip-rule="evenodd" fill="#2B2B2B" points="252.7,234.5 164.7,234.5 164.7,253 244.5,253 			"/>
			<polygon fill-rule="evenodd" clip-rule="evenodd" fill="#FFBB00" points="179.4,257.1 152.7,257.1 164.4,230.4 191.1,230.4 			
				"/>
			<g>
				<polygon fill="#828282" points="196.2,246.8 193.9,245.7 191.7,246.8 192.1,244.3 190.3,242.5 192.8,242.1 194,239.9 
					195.1,242.1 197.6,242.5 195.8,244.3 				"/>
				<polygon fill="#828282" points="207.2,246.8 205,245.7 202.7,246.8 203.1,244.3 201.3,242.5 203.8,242.1 205,239.9 206.1,242.1 
					208.6,242.5 206.8,244.3 				"/>
				<polygon fill="#828282" points="218.2,246.8 216,245.7 213.7,246.8 214.1,244.3 212.4,242.5 214.8,242.1 216,239.9 217.2,242.1 
					219.6,242.5 217.9,244.3 				"/>
				<polygon fill="#828282" points="229.2,246.8 227,245.7 224.8,246.8 225.1,244.3 223.4,242.5 225.9,242.1 227,239.9 228.2,242.1 
					230.6,242.5 228.9,244.3 				"/>
				<polygon fill="#828282" points="240.3,246.8 238,245.7 235.8,246.8 236.2,244.3 234.4,242.5 236.9,242.1 238.1,239.9 
					239.2,242.1 241.7,242.5 239.9,244.3 				"/>
			</g>
			<g>
				<path fill="#2B2B2B" d="M164.9,243.8L164.9,243.8c0-1.9,1.1-3.4,2.9-3.4c1.7,0,2.9,1.5,2.9,3.4v0c0,1.9-1.1,3.4-2.9,3.4
					C166,247.2,164.9,245.7,164.9,243.8z M169.4,243.8L169.4,243.8c0-1.3-0.7-2.4-1.7-2.4c-1,0-1.7,1-1.7,2.3v0
					c0,1.3,0.7,2.4,1.7,2.4C168.8,246.2,169.4,245.1,169.4,243.8z"/>
				<path fill="#2B2B2B" d="M171.6,245.8h1.3v1.3h-1.3V245.8z"/>
				<path fill="#2B2B2B" d="M173.8,243.8L173.8,243.8c0-1.9,1.1-3.4,2.9-3.4c1.7,0,2.9,1.5,2.9,3.4v0c0,1.9-1.1,3.4-2.9,3.4
					C175,247.2,173.8,245.7,173.8,243.8z M178.4,243.8L178.4,243.8c0-1.3-0.7-2.4-1.7-2.4c-1,0-1.7,1-1.7,2.3v0
					c0,1.3,0.7,2.4,1.7,2.4C177.7,246.2,178.4,245.1,178.4,243.8z"/>
			</g>
		</g>
	</g>
</g>
</svg>
