<svg xmlns="http://www.w3.org/2000/svg" viewBox="0 0 99.99 26.71"><defs><style>.cls-1{fill:#ff8000;}.cls-1,.cls-2,.cls-3{fill-rule:evenodd;}.cls-2,.cls-6{fill:#2b2b2b;}.cls-3,.cls-4{fill:#fb0;}.cls-5{fill:#828282;}</style></defs><title>4</title><g id="Слой_2" data-name="Слой 2"><g id="Layer_1" data-name="Layer 1"><polygon class="cls-1" points="44.05 12.79 38.44 0 11.73 0 17.34 12.79 44.05 12.79"/><polygon class="cls-2" points="99.99 4.11 12.03 4.11 12.03 22.6 91.87 22.6 99.99 4.11"/><polygon class="cls-3" points="26.71 26.71 0 26.71 11.73 0 38.44 0 26.71 26.71"/><polygon class="cls-4" points="43.49 16.36 41.25 15.23 39.01 16.34 39.38 13.86 37.64 12.06 40.11 11.66 41.28 9.44 42.43 11.67 44.89 12.1 43.13 13.88 43.49 16.36"/><polygon class="cls-4" points="54.51 16.36 52.28 15.23 50.03 16.34 50.41 13.86 48.66 12.06 51.13 11.66 52.3 9.44 53.45 11.67 55.92 12.1 54.16 13.88 54.51 16.36"/><polygon class="cls-4" points="65.54 16.36 63.3 15.23 61.05 16.34 61.43 13.86 59.69 12.06 62.16 11.66 63.33 9.44 64.47 11.67 66.94 12.1 65.18 13.88 65.54 16.36"/><polygon class="cls-4" points="76.56 16.36 74.32 15.23 72.08 16.34 72.46 13.86 70.71 12.06 73.18 11.66 74.35 9.44 75.5 11.67 77.97 12.1 76.2 13.88 76.56 16.36"/><polygon class="cls-5" points="87.59 16.36 85.35 15.23 83.1 16.34 83.48 13.86 81.73 12.06 84.21 11.66 85.37 9.44 86.52 11.67 88.99 12.1 87.23 13.88 87.59 16.36"/><polygon class="cls-4" points="85.35 9.48 84.21 11.66 81.73 12.06 83.48 13.86 83.1 16.34 85.35 15.23 85.35 15.23 85.35 9.48"/><path class="cls-6" d="M16,15.18H12.7l-.22-.83L16.14,10h1v4.2h.94v.95h-.94v1.48H16Zm0-.95v-2.6l-2.16,2.6Z"/><path class="cls-6" d="M19.19,15.37h1.25v1.29H19.19Z"/><path class="cls-6" d="M21.52,15.77l.71-.84a2.51,2.51,0,0,0,1.69.79,1.16,1.16,0,0,0,1.31-1.14v0c0-.67-.56-1.09-1.36-1.09a2.81,2.81,0,0,0-1.21.29L22,13.3l.19-3.22h3.93v1H23.14L23,12.65a2.8,2.8,0,0,1,1-.19,2,2,0,0,1,2.29,2.07v0a2.21,2.21,0,0,1-2.44,2.23A3.37,3.37,0,0,1,21.52,15.77Z"/></g></g></svg>