<svg xmlns="http://www.w3.org/2000/svg" viewBox="0 0 197.32 52.71"><defs><style>.cls-1{fill:#ff8000;}.cls-1,.cls-2,.cls-3{fill-rule:evenodd;}.cls-2,.cls-5{fill:#2b2b2b;}.cls-3,.cls-4{fill:#fb0;}</style></defs><title>Ресурс 1</title><g id="Слой_2" data-name="Слой 2"><g id="Layer_1" data-name="Layer 1"><polygon class="cls-1" points="86.94 25.23 75.86 0 23.14 0 34.22 25.23 86.94 25.23"/><polygon class="cls-2" points="197.32 8.11 23.73 8.11 23.73 44.6 181.3 44.6 197.32 8.11"/><polygon class="cls-3" points="52.71 52.71 0 52.71 23.14 0 75.85 0 52.71 52.71"/><polygon class="cls-4" points="85.83 32.28 81.41 30.05 76.97 32.24 77.72 27.35 74.27 23.81 79.15 23.01 81.46 18.64 83.72 23.03 88.6 23.87 85.12 27.38 85.83 32.28"/><polygon class="cls-4" points="107.58 32.28 103.16 30.05 98.73 32.24 99.48 27.35 96.03 23.81 100.91 23.01 103.22 18.64 105.48 23.03 110.35 23.87 106.87 27.38 107.58 32.28"/><polygon class="cls-4" points="129.34 32.28 124.92 30.05 120.48 32.24 121.24 27.35 117.79 23.81 122.67 23.01 124.97 18.64 127.23 23.03 132.11 23.87 128.63 27.38 129.34 32.28"/><polygon class="cls-4" points="151.09 32.28 146.68 30.05 142.24 32.24 142.99 27.35 139.54 23.81 144.42 23.01 146.72 18.64 148.99 23.03 153.86 23.87 150.38 27.38 151.09 32.28"/><polygon class="cls-4" points="172.85 32.28 168.43 30.05 164 32.24 164.75 27.35 161.3 23.81 166.18 23.01 168.48 18.64 170.75 23.03 175.62 23.87 172.14 27.38 172.85 32.28"/><path class="cls-5" d="M24.62,31.12,26,29.46A5,5,0,0,0,29.37,31,2.28,2.28,0,0,0,32,28.78v0c0-1.32-1.11-2.15-2.69-2.15a5.55,5.55,0,0,0-2.39.58l-1.37-.91.37-6.36h7.76v2H27.83l-.2,3a5.52,5.52,0,0,1,2.06-.37c2.52,0,4.51,1.34,4.51,4.08v0c0,2.65-1.93,4.4-4.81,4.4A6.66,6.66,0,0,1,24.62,31.12Z"/><path class="cls-5" d="M36.55,30.34H39v2.54H36.55Z"/><path class="cls-5" d="M41,26.42v0c0-3.71,2.26-6.72,5.68-6.72s5.64,3,5.64,6.68v0c0,3.71-2.26,6.72-5.68,6.72S41,30.13,41,26.42Zm9,0v0c0-2.56-1.32-4.66-3.32-4.66s-3.29,2-3.29,4.62v0c0,2.56,1.3,4.66,3.32,4.66S49.93,29,49.93,26.42Z"/></g></g></svg>