<?xml version="1.0" encoding="UTF-8" standalone="no"?>
<svg width="313px" height="178px" viewBox="0 0 313 178" version="1.1" xmlns="http://www.w3.org/2000/svg" xmlns:xlink="http://www.w3.org/1999/xlink" xmlns:sketch="http://www.bohemiancoding.com/sketch/ns">
    <!-- Generator: Sketch 3.4.2 (15855) - http://www.bohemiancoding.com/sketch -->
    <title>Layer_x0020_1</title>
    <desc>Created with Sketch.</desc>
    <defs></defs>
    <g id="Page-1" stroke="none" stroke-width="1" fill="none" fill-rule="evenodd" sketch:type="MSPage">
        <g id="Layer_x0020_1" sketch:type="MSLayerGroup">
            <g id="Group" sketch:type="MSShapeGroup">
                <path d="M31.2296879,61.4956268 C18.1487368,79.7886297 3.55178143,98.4275996 3.07532294,128.699708 C2.59886446,159.447522 28.5008802,182.973275 71.295515,177.048591 C113.483748,171.167153 111.101456,132.635083 103.608063,104.611759 C96.0713562,76.4154519 105.037439,64.6525753 83.6401212,48.2191448 C71.078943,38.6185617 31.7927752,37.7536443 31.2296879,61.4956268 L31.2296879,61.4956268 Z" id="Shape" fill="#373435"></path>
                <path d="M31.7061464,65.431001 C19.5781123,82.4266278 5.97738826,99.7249757 5.54424418,127.921283 C5.1111001,156.506803 29.1939108,178.345967 68.9998514,172.853741 C108.19939,167.404762 105.990356,131.553936 99.0167359,105.476676 C91.9998019,79.2696793 100.359483,68.3284742 80.4781694,53.0626822 C68.8265938,44.1107872 32.2692337,43.3323615 31.7061464,65.431001 L31.7061464,65.431001 Z" id="Shape" fill="#D19F5E"></path>
                <path d="M31.7061464,65.431001 C19.5781123,82.4266278 5.97738826,99.7249757 5.54424418,127.921283 C5.1111001,156.506803 29.1939108,178.345967 68.9998514,172.853741 C108.19939,167.404762 105.990356,131.553936 99.0167359,105.476676 C91.9998019,79.2696793 100.359483,68.3284742 80.4781694,53.0626822 C75.1938117,48.9975705 64.7983538,46.6190476 54.9659833,47.3109815 C65.1015547,49.7327502 61.6797165,52.2410107 67.7004192,58.5981535 C82.3840034,60.1550049 90.3538544,74.9883382 82.8604618,86.8809524 C93.2126053,87.8323615 92.4329459,99.7249757 89.1843654,106.557823 C88.2314484,116.028669 83.1203483,125.067055 78.4857067,127.705053 C64.1053233,171.642857 10.8719163,162.647716 9.31259765,126.148202 C8.44630949,112.958212 12.214663,100.633139 21.6138894,92.2434402 C21.6572038,83.8969874 28.2409938,70.2745384 34.4349541,66.1661808 C36.2108448,65.9067055 35.6910719,63.1389699 31.7061464,65.431001 L31.7061464,65.431001 Z" id="Shape" fill="#A6855D"></path>
                <path d="M36.7739321,65.2147716 C48.4255078,63.441691 52.9302062,93.9300292 39.1129101,96.0923226 C20.7909157,98.9033042 26.5950463,66.7716229 36.7739321,65.2147716 L36.7739321,65.2147716 Z" id="Shape" fill="#A6855D"></path>
                <path d="M36.9905041,71.5286686 C48.3821933,70.0150632 52.7569485,95.8760933 39.2861677,97.7356657 C21.4406318,100.157434 27.1148192,72.8260447 36.9905041,71.5286686 L36.9905041,71.5286686 Z" id="Shape" fill="#373435"></path>
                <path d="M71.8586023,66.8581147 C65.8378996,57.9927114 54.2296384,59.1603499 52.4970621,73.7774538 C65.1015547,70.750243 70.6024845,69.9718173 71.8586023,66.8581147 L71.8586023,66.8581147 Z" id="Shape" fill="#373435"></path>
                <path d="M37.5535914,73.7774538 C47.2560187,72.4800777 51.0243722,94.6219631 39.5027398,96.2220603 C24.2127539,98.2546161 29.0639675,74.9018465 37.5535914,73.7774538 L37.5535914,73.7774538 Z" id="Shape" fill="#FEFEFE"></path>
                <path d="M38.3332508,73.2585034 C46.6063026,73.4314869 46.8228747,92.329932 37.0338185,92.1569485 C24.0828107,91.8974733 31.1430591,73.1287658 38.3332508,73.2585034 L38.3332508,73.2585034 Z" id="Shape" fill="#FEFEFE"></path>
                <path d="M41.971661,74.9450923 C48.1223069,79.4859086 49.0319095,94.9246842 39.5027398,96.2220603 C30.8398582,97.3896987 28.6308235,90.3838678 29.8869413,83.8969874 C29.4104828,88.1350826 31.1863735,92.0272109 37.0338185,92.1569485 C45.0902984,92.329932 46.3464162,79.6156463 41.971661,74.9450923 L41.971661,74.9450923 Z" id="Shape" fill="#BDC7D3"></path>
                <path d="M38.0733643,91.9407191 C32.9622642,89.5621963 27.5479633,90.2973761 25.9886446,93.6273081 C24.4293259,96.9139942 27.2447624,101.584548 32.3558625,103.963071 C37.4236482,106.38484 42.8379492,105.64966 44.3972678,102.319728 C45.9999009,98.9897959 43.14115,94.3624879 38.0733643,91.9407191 L38.0733643,91.9407191 Z" id="Shape" fill="#D19F5E"></path>
                <path d="M44.0507526,84.2862002 C42.3181763,84.2862002 40.9321152,85.7133139 40.9321152,87.4431487 C40.9321152,89.2162293 42.3181763,90.6433431 44.0507526,90.6433431 C45.7400145,90.6433431 47.1260755,89.2162293 47.1260755,87.4431487 C47.1260755,85.7133139 45.7400145,84.2862002 44.0507526,84.2862002 L44.0507526,84.2862002 Z" id="Shape" fill="#373435"></path>
                <path d="M43.9641238,84.9781341 C42.5780627,84.9781341 41.4518881,86.1025267 41.4518881,87.5296404 C41.4518881,88.9135083 42.5780627,90.0811467 43.9641238,90.0811467 C45.3501848,90.0811467 46.4763594,88.9135083 46.4763594,87.5296404 C46.4763594,86.1025267 45.3501848,84.9781341 43.9641238,84.9781341 L43.9641238,84.9781341 Z" id="Shape" fill="#848688"></path>
                <path d="M41.7117746,86.4052478 C41.5818313,86.7512148 41.4518881,87.0971817 41.4518881,87.5296404 C41.4518881,88.9135083 42.5780627,90.0811467 43.9641238,90.0811467 C44.5272111,90.0811467 45.046984,89.8649174 45.4368136,89.5621963 C45.0902984,89.7784257 44.7004687,89.8649174 44.2673246,89.8649174 C42.7946348,89.8649174 41.6251458,88.654033 41.6251458,87.1836735 C41.6251458,86.8809524 41.6684602,86.6214772 41.7117746,86.4052478 L41.7117746,86.4052478 Z" id="Shape" fill="#FEFEFE"></path>
                <path d="M44.3539534,84.8916424 C43.1844644,84.8916424 42.2315475,85.8430515 42.2315475,87.0539359 C42.2315475,88.2215743 43.1844644,89.2162293 44.3539534,89.2162293 C45.5234424,89.2162293 46.4763594,88.2215743 46.4763594,87.0539359 C46.4763594,85.8430515 45.5234424,84.8916424 44.3539534,84.8916424 L44.3539534,84.8916424 Z" id="Shape" fill="#373435"></path>
                <path d="M44.9170407,85.1511176 C44.310639,84.9781341 43.7042373,85.1943635 43.4876653,85.670068 C43.3144077,86.1457726 43.6609229,86.7079689 44.2673246,86.8809524 C44.8304119,87.0971817 45.4368136,86.8809524 45.6533857,86.4052478 C45.8266433,85.9295432 45.480128,85.3673469 44.9170407,85.1511176 L44.9170407,85.1511176 Z" id="Shape" fill="#FEFEFE"></path>
                <path d="M65.0582403,63.3551992 C48.7287086,62.101069 44.2673246,99.2060253 63.6288648,100.806122 C89.2709942,102.881924 79.3086804,64.4795918 65.0582403,63.3551992 L65.0582403,63.3551992 Z" id="Shape" fill="#A6855D"></path>
                <path d="M64.6684106,68.9771623 C49.6383112,67.8960155 45.5234424,99.0762877 63.3689784,100.41691 C86.9753306,102.146744 77.7926761,69.9285714 64.6684106,68.9771623 L64.6684106,68.9771623 Z" id="Shape" fill="#373435"></path>
                <path d="M64.2352665,72.2638484 C51.0243722,71.3124393 47.4292764,98.7303207 63.1090919,99.8979592 C83.8566932,101.411565 75.8002134,73.0855199 64.2352665,72.2638484 L64.2352665,72.2638484 Z" id="Shape" fill="#FEFEFE"></path>
                <path d="M54.0996952,93.5840622 C55.6156994,97.0004859 58.5610791,99.5519922 63.1090919,99.8979592 C83.5968068,101.411565 75.973471,73.7774538 64.6684106,72.3070943 C73.8077506,76.2424684 76.926388,99.6817298 59.4273673,96.4382896 C57.1317037,96.0058309 55.355813,94.96793 54.0996952,93.5840622 L54.0996952,93.5840622 Z" id="Shape" fill="#BDC7D3"></path>
                <path d="M63.0224631,84.1997085 C64.9282971,84.1997085 66.4443013,85.7565598 66.4443013,87.659378 C66.4443013,89.5621963 64.9282971,91.0758017 63.0224631,91.0758017 C61.1599436,91.0758017 59.6439393,89.5621963 59.6439393,87.659378 C59.6439393,85.7565598 61.1599436,84.1997085 63.0224631,84.1997085 L63.0224631,84.1997085 Z" id="Shape" fill="#373435"></path>
                <path d="M63.1090919,84.9348882 C64.6250962,84.9348882 65.8378996,86.1890185 65.8378996,87.7026239 C65.8378996,89.2162293 64.6250962,90.4703596 63.1090919,90.4703596 C61.5930877,90.4703596 60.3802843,89.2162293 60.3802843,87.7026239 C60.3802843,86.1890185 61.5930877,84.9348882 63.1090919,84.9348882 L63.1090919,84.9348882 Z" id="Shape" fill="#848688"></path>
                <path d="M65.5346988,86.4917396 C65.7079564,86.8377065 65.8378996,87.2701652 65.8378996,87.7026239 C65.8378996,89.2162293 64.6250962,90.4703596 63.1090919,90.4703596 C62.5026902,90.4703596 61.9396029,90.2973761 61.5064589,89.9514091 C61.8962885,90.1243926 62.3294326,90.2541302 62.7625767,90.2541302 C64.3652098,90.2541302 65.664642,88.9567541 65.664642,87.3134111 C65.664642,87.01069 65.6213276,86.7512148 65.5346988,86.4917396 L65.5346988,86.4917396 Z" id="Shape" fill="#FEFEFE"></path>
                <path d="M62.6759479,84.8483965 C63.9753801,84.8483965 65.0149259,85.8862974 65.0149259,87.1836735 C65.0149259,88.4810496 63.9753801,89.5189504 62.6759479,89.5189504 C61.3765156,89.5189504 60.3369699,88.4810496 60.3369699,87.1836735 C60.3369699,85.8862974 61.3765156,84.8483965 62.6759479,84.8483965 L62.6759479,84.8483965 Z" id="Shape" fill="#373435"></path>
                <path d="M62.1128606,85.1511176 C62.7192623,84.9348882 63.4122928,85.1511176 63.5855504,85.670068 C63.8021225,86.1890185 63.4556072,86.7944606 62.8058911,87.01069 C62.156175,87.2701652 61.5064589,87.01069 61.2898868,86.4917396 C61.1166292,85.9727891 61.4631445,85.3673469 62.1128606,85.1511176 L62.1128606,85.1511176 Z" id="Shape" fill="#FEFEFE"></path>
                <path d="M65.4913844,91.0325559 C71.6420303,86.016035 79.3086804,85.1511176 82.6005754,89.1729835 C85.8924704,93.1948494 83.5968068,100.503401 77.4461609,105.563168 C71.295515,110.622935 63.6288648,111.444606 60.3369699,107.422741 C57.0450749,103.444121 59.3407385,96.0923226 65.4913844,91.0325559 L65.4913844,91.0325559 Z" id="Shape" fill="#D19F5E"></path>
                <path d="M86.4988721,92.7623907 C84.4630949,89.2594752 82.1674313,89.7784257 81.3444576,93.324587 C82.4706322,90.7730807 84.8529246,90.9028183 86.4988721,92.7623907 L86.4988721,92.7623907 Z" id="Shape" fill="#373435"></path>
                <path d="M37.0338185,146.949466 C34.6082117,143.143829 31.4029455,143.706025 27.8944785,145.349368 C30.6666006,146.430515 35.1279846,147.338678 37.0338185,146.949466 L37.0338185,146.949466 Z" id="Shape" fill="#373435"></path>
                <path d="M74.803982,150.582119 C70.0827116,146.90622 66.3143581,149.025267 62.6759479,152.65792 C66.6608734,152.787658 72.6382616,151.879495 74.803982,150.582119 L74.803982,150.582119 Z" id="Shape" fill="#373435"></path>
                <path d="M15.5065579,129.132167 C13.9039249,125.499514 11.0018595,125.586006 7.70996456,126.537415 C10.0056282,127.878037 13.817296,129.261905 15.5065579,129.132167 L15.5065579,129.132167 Z" id="Shape" fill="#373435"></path>
                <path d="M107.203159,132.591837 C101.6156,130.472789 98.6269062,133.629738 96.2446138,138.170554 C100.056282,137.089407 105.513897,134.494655 107.203159,132.591837 L107.203159,132.591837 Z" id="Shape" fill="#373435"></path>
                <path d="M62.372747,166.58309 C58.2145639,163.080175 54.6627825,164.896501 51.2842587,168.05345 C54.8793545,168.312925 60.3369699,167.707483 62.372747,166.58309 L62.372747,166.58309 Z" id="Shape" fill="#373435"></path>
                <path d="M22.6967496,105.736152 C21.5272606,103.054908 19.4048546,103.098154 16.9792478,103.833333 C18.6685097,104.784742 21.4406318,105.779397 22.6967496,105.736152 L22.6967496,105.736152 Z" id="Shape" fill="#373435"></path>
                <path d="M100.965884,100.41691 C96.6777579,98.3411079 94.1222078,100.633139 91.913173,104.049563 C95.0318104,103.487366 99.4931944,101.800777 100.965884,100.41691 L100.965884,100.41691 Z" id="Shape" fill="#373435"></path>
                <path d="M88.5779636,76.0694849 C85.849156,73.9071914 83.6401212,75.1180758 81.5177152,77.2371234 C83.8133788,77.3236152 87.3218458,76.8479106 88.5779636,76.0694849 L88.5779636,76.0694849 Z" id="Shape" fill="#373435"></path>
                <path d="M70.2126548,60.9766764 C67.787048,57.1710398 64.495153,57.7332362 60.986686,59.4198251 C63.8021225,60.5442177 68.3501353,61.4091351 70.2126548,60.9766764 L70.2126548,60.9766764 Z" id="Shape" fill="#635B53"></path>
                <path d="M41.018744,124.245384 C27.1581336,129.045675 48.2955645,137.608358 58.3445071,137.824587 C48.2522501,136.137998 36.340788,129.218659 41.018744,124.245384 L41.018744,124.245384 Z" id="Shape" fill="#FFFBD6"></path>
                <path d="M41.2353161,135.835277 C46.6929314,146.084548 88.1015052,158.236638 82.9470907,123.899417 C81.8642305,125.54276 79.1354228,126.018465 78.2258202,128.26725 C73.5045498,143.187075 46.3897306,138.819242 41.2353161,135.835277 L41.2353161,135.835277 Z" id="Shape" fill="#A6855D"></path>
                <path d="M24.86247,96.8275024 C31.7927752,122.904762 88.8811645,125.715743 83.72675,91.3785228 C77.7060473,114.904276 36.2541592,117.196307 24.86247,96.8275024 L24.86247,96.8275024 Z" id="Shape" fill="#A6855D"></path>
                <path d="M82.2540601,87.8323615 C73.6778074,84.3726919 65.7512708,87.0971817 60.6834851,96.654519 C67.7437336,87.4863946 76.4499295,86.9241983 82.2540601,87.8323615 L82.2540601,87.8323615 Z" id="Shape" fill="#373435"></path>
                <path d="M37.0771329,130.04033 C41.2786305,141.630224 61.7230309,143.9655 73.5478642,137.521866 C59.0375376,142.149174 43.1844644,135.402818 37.0771329,130.04033 L37.0771329,130.04033 Z" id="Shape" fill="#373435"></path>
                <path d="M24.86247,96.8275024 C24.2993827,108.8931 49.9848264,119.618076 41.6251458,128.656463 C60.986686,145.652089 96.1146706,131.034985 83.7700644,91.2920311 C79.1354228,121.434402 28.9340243,113.390671 24.86247,96.8275024 L24.86247,96.8275024 Z" id="Shape" fill="#373435"></path>
                <path d="M42.6646915,111.790573 C64.495153,124.634597 83.1203483,119.877551 83.3369203,97.6059281 C79.0054796,107.768707 68.9998514,115.942177 42.6646915,111.790573 L42.6646915,111.790573 Z" id="Shape" fill="#FEFEFE"></path>
                <path d="M42.6646915,111.790573 C64.4085242,116.071914 77.0130168,115.206997 83.3369203,97.6059281 C79.0054796,107.768707 68.9998514,115.942177 42.6646915,111.790573 L42.6646915,111.790573 Z" id="Shape" fill="#BDC7D3"></path>
                <path d="M48.7287086,131.553936 C59.817197,138.040816 74.6307244,133.154033 80.1316542,123.985909 C72.0751743,127.099611 53.9264375,130.77551 48.7287086,131.553936 L48.7287086,131.553936 Z" id="Shape" fill="#FEFEFE"></path>
                <path d="M75.3670693,90.1676385 C76.7964448,89.7784257 78.1825058,90.3838678 78.4423923,91.5515063 C78.7022787,92.7623907 77.7493617,94.0597668 76.3199863,94.4489796 C74.8906108,94.8814383 73.5045498,94.2327502 73.2446633,93.0651118 C72.9847769,91.8974733 73.9376939,90.6000972 75.3670693,90.1676385 L75.3670693,90.1676385 Z" id="Shape" fill="#A6855D"></path>
                <path d="M72.9414625,95.9193392 C73.8943795,95.6598639 74.803982,96.0490768 75.0205541,96.8707483 C75.1938117,97.649174 74.5440956,98.5140914 73.5911786,98.7735666 C72.6382616,99.0762877 71.6853447,98.643829 71.512087,97.8654033 C71.3388294,97.0869776 71.9885455,96.2220603 72.9414625,95.9193392 L72.9414625,95.9193392 Z" id="Shape" fill="#A6855D"></path>
                <path d="M70.2126548,93.1948494 C70.7324277,93.0651118 71.2522006,93.2813411 71.3388294,93.7137998 C71.4254582,94.1462585 71.078943,94.6219631 70.5591701,94.7517007 C70.0393972,94.9246842 69.5629387,94.6652089 69.4329955,94.2759961 C69.3463667,93.8435374 69.6928819,93.3678328 70.2126548,93.1948494 L70.2126548,93.1948494 Z" id="Shape" fill="#A6855D"></path>
                <path d="M30.9264871,96.9139942 C29.8869413,96.3950437 29.4104828,95.3571429 29.8869413,94.5354713 C30.3200854,93.7137998 31.5328888,93.4543246 32.5724346,93.973275 C33.6119803,94.4922255 34.0884388,95.5301263 33.6119803,96.3517979 C33.1788363,97.1734694 31.9660328,97.4329446 30.9264871,96.9139942 L30.9264871,96.9139942 Z" id="Shape" fill="#A6855D"></path>
                <path d="M34.9114126,95.1409135 C34.2616965,94.6652089 34.0451244,93.8867833 34.4349541,93.3678328 C34.8247838,92.8488824 35.6910719,92.8056365 36.340788,93.2813411 C37.0338185,93.7137998 37.2503906,94.4922255 36.8172465,95.0111759 C36.4274168,95.5301263 35.5611287,95.5733722 34.9114126,95.1409135 L34.9114126,95.1409135 Z" id="Shape" fill="#A6855D"></path>
                <path d="M35.171299,98.2113703 C34.8247838,97.9951409 34.6948405,97.5626822 34.9114126,97.303207 C35.1279846,97.0004859 35.6044431,97.0004859 35.9509584,97.2167153 C36.2974736,97.4761905 36.4274168,97.9086492 36.2108448,98.1681244 C35.9942728,98.4708455 35.5178143,98.4708455 35.171299,98.2113703 L35.171299,98.2113703 Z" id="Shape" fill="#A6855D"></path>
                <path d="M44.6138399,95.0111759 C50.1580841,89.2594752 49.6383112,73.4747328 45.6100713,66.5553936 C47.4292764,73.388241 47.9923637,89.5189504 44.6138399,95.0111759 L44.6138399,95.0111759 Z" id="Shape" fill="#373435"></path>
                <path d="M27.5479633,98.4275996 C25.7287581,95.4003887 23.7362954,95.8328474 23.0432649,98.9033042 C23.9961818,96.6977648 26.0752734,96.7842566 27.5479633,98.4275996 L27.5479633,98.4275996 Z" id="Shape" fill="#373435"></path>
                <path d="M68.3068209,13.7954325 C61.6797165,17.4280855 55.9622147,24.3041788 52.6270053,32.9965986 C54.1430096,32.1749271 55.7889571,31.4829932 57.5215334,30.9207969 C64.2352665,28.6720117 70.9489997,28.6287658 76.1467287,30.4018465 C75.0205541,23.6987366 72.248432,17.9037901 68.3068209,13.7954325 L68.3068209,13.7954325 Z" id="Shape" fill="#373435"></path>
                <path d="M24.0394962,25.8177843 C31.5762032,25.6015549 40.0225127,28.6287658 47.2993332,34.4237123 C45.5667568,34.5102041 43.7908661,34.7264334 42.0149754,35.1156463 C35.0846702,36.5860058 29.2805396,39.9591837 25.6854437,44.1107872 C23.2598369,37.7536443 22.6967496,31.3532556 24.0394962,25.8177843 L24.0394962,25.8177843 Z" id="Shape" fill="#373435"></path>
                <path d="M59.2974241,64.7823129 C45.6967001,40.0889213 20.4877148,24.6933916 0,29.3639456 C3.29189498,33.3858115 6.41053233,37.5806608 9.31259765,42.0349854 C15.2466715,51.2031098 19.9679419,60.760447 23.5197234,70.5772595 C35.3445566,69.9285714 47.3426476,68.0257532 59.2974241,64.7823129 L59.2974241,64.7823129 Z" id="Shape" fill="#373435"></path>
                <path d="M58.3878215,65.0417881 C57.5648478,36.8887269 71.4687726,10.8547133 91.5233434,4.49757046 C90.743684,9.60058309 90.1805967,14.8333333 89.9640247,20.1525753 C89.4442518,31.0505345 90.2672255,41.7322643 92.1730595,52.0247813 C81.6909728,57.3872692 70.4725412,61.755102 58.5177647,64.9985423 L58.3878215,65.0417881 L58.3878215,65.0417881 Z" id="Shape" fill="#373435"></path>
                <path d="M41.4518881,0 C57.0883893,9.42759961 71.9885455,30.5748299 80.5214838,57.5170068 C73.634493,60.3712342 66.5309302,62.8362488 59.1241664,64.8255588 C51.7174027,66.8581147 44.3539534,68.3284742 36.9905041,69.3663751 C30.6232862,41.7755102 32.7456922,16.0442177 41.4518881,0 L41.4518881,0 Z" id="Shape" fill="#373435"></path>
                <path d="M42.5347483,4.02186589 C51.1543154,9.21137026 59.5139961,18.4659864 66.4443013,30.4450923 C71.512087,19.6336249 79.481938,11.4169096 89.0111077,8.38969874 C88.3180772,12.8007775 87.8416187,17.3415938 87.6250467,21.925656 C87.235217,31.3100097 87.9282475,40.52138 89.574195,49.4300292 C84.4197805,52.0680272 79.048794,54.44655 73.4612354,56.4791059 C68.5233929,58.3819242 63.4122928,60.0685131 58.1712495,61.4956268 C53.4066646,62.7930029 48.5987654,63.8741497 43.7908661,64.6958212 C37.3370194,65.9067055 30.8398582,66.6851312 24.4726403,67.0310982 C21.3973174,58.5549077 17.3257631,50.2949466 12.1713486,42.4241983 C9.70242731,38.5753158 6.97361963,34.8994169 4.15818313,31.4397473 C14.0771825,29.1909621 25.2956141,32.3911565 35.3012422,39.3969874 C35.1279846,25.3420797 37.6835347,12.9737609 42.5347483,4.02186589 L42.5347483,4.02186589 Z" id="Shape" fill="#FFCC29"></path>
                <path d="M42.5347483,4.02186589 C39.632683,13.1467444 37.9434211,30.3153547 39.8059406,45.6676385 C34.00181,39.1375121 20.4877148,32.1749271 10.4387722,31.5694849 C16.6760469,37.191448 23.4764089,57.4737609 24.4726403,67.0310982 C21.3973174,58.5549077 17.3257631,50.2949466 12.1713486,42.4241983 C9.70242731,38.5753158 6.97361963,34.8994169 4.15818313,31.4397473 C14.0771825,29.1909621 25.2956141,32.3911565 35.3012422,39.3969874 C35.1279846,25.3420797 37.6835347,12.9737609 42.5347483,4.02186589 L42.5347483,4.02186589 Z" id="Shape" fill="#FFFBD6"></path>
                <path d="M42.5347483,4.02186589 C50.2880273,8.99514091 60.3802843,22.5310982 66.3143581,34.9426628 C71.2088862,24.0879495 79.8717677,11.7196307 89.0111077,8.38969874 C88.3180772,12.8007775 87.8416187,17.3415938 87.6250467,21.925656 C87.235217,31.3100097 87.9282475,40.52138 89.574195,49.4300292 C84.4197805,52.0680272 79.048794,54.44655 73.4612354,56.4791059 C68.5233929,58.3819242 63.4122928,60.0685131 58.1712495,61.4956268 C53.4066646,62.7930029 48.5987654,63.8741497 43.7908661,64.6958212 C37.3370194,65.9067055 30.8398582,66.6851312 24.4726403,67.0310982 C29.1072819,66.3824101 63.2823496,61.4956268 74.6307244,51.0733722 C62.8058911,55.6574344 37.7268491,60.4577259 39.5893686,58.771137 C56.6985596,50.7274052 58.8209656,22.0121477 42.5347483,4.02186589 L42.5347483,4.02186589 Z" id="Shape" fill="#BEA058"></path>
                <path d="M89.0111077,8.38969874 C88.3180772,12.8007775 87.8416187,17.3415938 87.6250467,21.925656 C87.235217,31.3100097 87.9282475,40.52138 89.574195,49.4300292 C88.6212781,49.9057337 87.6683611,50.3814383 86.7154441,50.8571429 C84.4197805,40.0024295 84.9395534,19.4606414 89.0111077,8.38969874 L89.0111077,8.38969874 Z" id="Shape" fill="#FFCC29"></path>
                <path d="M86.7587585,43.9810496 C80.6081126,48.8678328 69.8228251,53.8843537 57.0883893,57.3440233 C44.3539534,60.8036929 32.5291201,61.9280855 24.6892124,60.8469388 C34.0884388,59.9820214 45.0036695,57.9927114 56.3953588,54.8790087 C67.8303624,51.808552 78.2258202,48.0029155 86.7587585,43.9810496 L86.7587585,43.9810496 Z" id="Shape" fill="#373435"></path>
                <path d="M24.8191556,92.5894072 C29.9735701,89.0864917 37.7268491,88.351312 43.0545212,95.8328474 C36.8605609,89.0864917 28.8907099,91.5515063 24.8191556,92.5894072 L24.8191556,92.5894072 Z" id="Shape" fill="#373435"></path>
            </g>
            <path d="M213.84071,137.968837 C213.84071,137.968837 213.84071,137.968837 213.84071,137.917078 C214.196846,137.399491 214.247722,136.571351 214.247722,135.950247 C214.298599,134.915073 214.095093,133.931657 213.789833,133 L213.738957,133 L213.738957,133.051759 L213.738957,133.103517 C213.230192,134.242209 212.874056,135.43266 212.721426,136.674869 C212.721426,136.830145 212.772303,137.03718 212.823179,137.192456 L212.924932,137.399491 L212.975809,137.658285 C213.026685,137.761802 213.077562,137.865319 213.077562,137.968837 C213.179315,138.020596 213.433698,138.020596 213.535451,138.020596 C213.586327,138.020596 213.738957,138.020596 213.84071,137.968837 L213.84071,137.968837 Z M283.185418,148.807544 L279.573185,151.498997 L281.659122,154.863314 C282.218764,152.844724 282.727529,150.826134 283.185418,148.807544 L283.185418,148.807544 L283.185418,148.807544 Z M134.168066,148.807544 L130.555833,151.498997 L132.692647,154.863314 C133.201412,152.844724 133.710177,150.826134 134.168066,148.807544 L134.168066,148.807544 L134.168066,148.807544 Z M262.529548,137.731178 L273.569754,136.178417 L273.468001,137.110074 L274.790791,135.971382 L284.91522,140.163838 L285.220479,138.197007 L303.485153,135.971382 L304.095671,139.801527 C305.621967,148.704026 308.267547,157.606526 311.269262,166.146714 L312.795558,170.546205 L295.751921,174.065798 L294.836143,170.287412 L293.920366,174.686903 L280.23458,171.995449 L273.264495,174.893937 L271.229434,170.908516 L256.220858,174.221074 L256.220858,172.254243 L222.896732,174.065798 L222.947608,170.183894 C220.149399,172.513036 216.791549,173.755246 212.874056,173.755246 C208.091662,173.755246 204.072416,171.736656 201.070701,168.010028 C200.816319,167.699476 200.561936,167.388923 200.35843,167.13013 C200.409306,167.440682 200.409306,167.751234 200.460183,168.061787 L200.867195,171.840173 L183.111287,175.100972 L183.06041,155.173866 C182.755151,155.846729 182.399015,156.519593 181.941126,157.192456 L181.89025,157.244215 L181.839373,157.347732 C180.414831,159.366322 178.481523,160.970842 176.344708,162.161293 C174.614906,163.144709 172.783351,163.869331 170.850043,164.386918 C170.90092,165.784403 171.053549,167.233647 171.206179,168.527615 L171.613191,172.668313 L154.366048,174.221074 L154.467801,172.461278 L146.734569,174.065798 L145.818791,170.287412 L144.95389,174.686903 L131.217228,171.995449 L124.247143,174.893937 L122.262959,170.908516 L107.254383,174.221074 L107,138.662835 L124.552402,136.178417 L124.450649,137.110074 L125.773439,135.971382 L135.897868,140.163838 L136.254004,138.197007 L154.467801,135.971382 L154.92569,138.559318 L157.673022,137.989972 C161.895774,137.110074 166.678168,136.281934 170.951796,136.540728 C173.546499,136.696004 176.141202,137.161832 178.379769,138.4558 L205.140823,136.178417 L205.700465,138.973388 C208.142539,137.420626 210.940748,136.592487 214.095093,136.592487 C217.50382,136.592487 220.556412,137.627661 223.100238,139.594492 L223.100238,138.818111 L240.601764,136.954798 L240.550887,137.472385 L251.743724,136.230176 L251.641971,137.110074 L262.733054,135.298519 L262.529548,137.731178 L262.529548,137.731178 Z" id="Shape" fill="#373435" sketch:type="MSShapeGroup"></path>
            <path d="M295.292317,159.254243 L291.374824,159.306002 L293.308132,149.006017 L295.292317,159.254243 L295.292317,159.254243 Z M280.792506,167.949707 L289.797652,169.761262 L290.815182,164.895943 L296.56423,164.326597 L297.683514,169.140158 L306.434277,167.328603 C302.87292,157.080377 300.481723,148.07436 299.158933,140.310552 L287.660838,141.708038 C286.083665,150.455261 283.794221,159.202484 280.792506,167.949707 L280.792506,167.949707 L280.792506,167.949707 Z M259.017352,142.01859 L267.920744,140.776381 C267.615485,143.002006 267.462856,144.813561 267.411979,146.107529 C270.006682,144.192456 272.397879,142.329142 274.483817,140.517587 L282.064419,143.674869 L273.161027,150.248226 L282.878444,165.879359 L274.127681,169.502469 L266.852337,155.113545 C266.750584,159.306002 266.852337,163.343182 267.10672,167.225085 L259.169982,168.984882 L259.017352,142.01859 L259.017352,142.01859 Z M234.952754,141.397485 C233.884347,150.248226 233.528211,157.701481 233.935223,163.860769 L237.547457,163.601975 L237.394827,152.577368 C237.293074,147.505014 237.242198,143.881904 237.191321,141.656279 L246.196467,140.672863 C245.178936,149.26481 244.97543,156.769824 245.585948,163.187905 L249.503441,162.825594 L248.842046,141.397485 L257.28755,140 C256.931414,144.658285 256.677032,149.316569 256.626155,153.871336 C256.575279,158.426103 256.727908,163.084388 257.185797,167.897949 L225.896732,169.605986 L226.049362,142.329142 L234.952754,141.397485 L234.952754,141.397485 Z M216.128438,150.558778 C215.365291,148.850741 214.246007,147.970842 212.872341,147.970842 C211.295168,147.970842 210.023255,149.057776 209.056601,151.231642 C208.34433,152.836162 207.886441,154.5442 207.733811,156.252237 C207.682935,157.080377 207.835564,157.856757 208.089947,158.58138 C208.395206,159.668313 208.903971,160.444693 209.565366,160.962281 C210.328514,161.583385 211.295168,161.893937 212.516205,161.893937 C214.144254,161.893937 215.365291,161.272833 216.179315,159.978865 C216.891586,158.891932 217.247722,157.494446 217.247722,155.838168 C217.298599,154.026612 216.942463,152.266816 216.128438,150.558778 L216.128438,150.558778 L216.128438,150.558778 Z M203.256677,145.693459 C205.69875,142.225625 209.005724,140.517587 213.075847,140.517587 C216.586327,140.517587 219.486289,141.915073 221.775733,144.761802 C223.047646,146.314564 223.963424,147.919084 224.421313,149.575363 C224.930078,151.231642 225.133584,153.043197 225.031831,155.061787 C224.930078,158.374345 223.810794,161.479868 221.67398,164.326597 C219.18103,167.794431 215.924932,169.502469 211.85481,169.502469 C208.293453,169.502469 205.393491,168.053225 203.104047,165.206495 C202.03564,163.964286 201.170739,162.411525 200.611097,160.651728 C200.102332,158.840173 199.898826,156.976859 199.949702,155.061787 C200.153209,151.593953 201.272492,148.48843 203.256677,145.693459 L203.256677,145.693459 L203.256677,145.693459 Z M202.290023,147.712049 L200.916356,140.41407 L179.497338,142.173866 L178.937696,149.523604 C179.955227,149.471845 181.176263,149.316569 182.753436,149.161293 C184.432361,148.954258 185.551645,148.850741 186.009534,148.798982 L186.06041,170.020056 L195.472568,168.312018 C194.404161,157.960275 193.997149,151.231642 194.251531,148.126119 C195.87958,148.022601 198.576036,147.867325 202.290023,147.712049 L202.290023,147.712049 L202.290023,147.712049 Z M165.608046,154.078371 C167.490477,154.078371 169.016773,153.560784 170.23781,152.577368 C171.102711,151.852746 171.662353,150.869331 171.814982,149.730639 C172.120241,148.229636 171.509723,147.24622 170.08518,146.728633 C168.965897,146.366322 167.388724,146.418081 165.40454,146.987427 L165.608046,154.078371 L165.608046,154.078371 Z M157.976566,155.838168 C158.129196,148.022601 157.92569,143.312558 157.467801,141.811555 C162.555454,140.724622 166.676453,140.258794 169.729044,140.41407 C172.832513,140.621105 175.121956,141.345727 176.648252,142.691453 C178.327178,144.140697 179.192079,146.211046 179.242955,148.954258 C179.242955,151.076366 178.73419,153.043197 177.614906,154.802993 C176.546499,156.200479 175.172833,157.442688 173.341278,158.426103 C171.25534,159.668313 168.76239,160.496452 165.862428,160.910522 C165.709799,162.722077 165.811552,165.361771 166.167687,168.777847 L157.671307,169.554228 C157.823937,167.01805 157.92569,162.463283 157.976566,155.838168 L157.976566,155.838168 L157.976566,155.838168 Z M146.274965,159.254243 L142.408349,159.306002 L144.341657,149.006017 L146.274965,159.254243 L146.274965,159.254243 Z M131.826031,167.949707 L140.831176,169.761262 L141.79783,164.895943 L147.546878,164.326597 L148.717038,169.140158 L157.467801,167.328603 C153.906444,157.080377 151.464371,148.07436 150.141581,140.310552 L138.643486,141.708038 C137.11719,150.455261 134.827746,159.202484 131.826031,167.949707 L131.826031,167.949707 L131.826031,167.949707 Z M110,142.01859 L118.903392,140.776381 C118.598133,143.002006 118.445504,144.813561 118.445504,146.107529 C121.040207,144.192456 123.380527,142.329142 125.517341,140.517587 L133.047067,143.674869 L124.143675,150.248226 L133.861092,165.879359 L125.110329,169.502469 L117.834985,155.113545 C117.733232,159.306002 117.834985,163.343182 118.140245,167.225085 L110.203506,168.984882 L110,142.01859 L110,142.01859 Z" id="Shape" fill="#FFCC29" sketch:type="MSShapeGroup"></path>
            <path d="M272.576994,115.767279 L272.576994,115.715521 C272.526117,115.301451 272.373488,115.146175 272.068229,114.887381 C272.017352,114.887381 271.966475,114.835622 271.966475,114.835622 L271.915599,116.12959 C272.017352,116.077832 272.068229,116.026073 272.119105,116.026073 L272.271735,115.922555 L272.424364,115.870797 C272.475241,115.819038 272.526117,115.819038 272.576994,115.767279 L272.576994,115.767279 Z M233.554696,100.032629 C233.859956,99.7738356 234.012585,99.4632833 234.114338,99.1009723 C233.961709,99.0492136 233.758203,99.0492136 233.554696,99.0492136 L233.554696,100.032629 L233.554696,100.032629 Z M249.072038,82.1758717 L249.072038,82.0723543 L273.696277,77.8281395 L273.085759,84.5567727 C272.831376,87.248226 272.729623,89.9396793 272.729623,92.6828914 C275.934845,92.9934437 279.089189,93.666307 282.040028,94.8567575 C285.754015,96.2542428 289.010113,98.428109 291.452186,101.585391 L291.503062,101.637149 L291.553939,101.688908 C294.301271,105.363777 295.471432,109.763268 295.369679,114.369794 C295.267926,120.063253 293.487247,125.239125 289.417125,129.224546 C285.652262,133.261726 280.411979,135.383833 275.171697,136.574284 L275.12082,136.574284 C268.048983,138.075286 260.061368,138.023528 252.836901,137.609458 L246.884347,137.298906 L248.15626,131.294894 C249.275544,126.326058 249.631679,120.477323 249.784309,114.93914 C248.15626,116.440143 246.324705,117.682352 244.391397,118.769285 C241.186176,120.684357 237.675695,121.926567 234.063462,122.806465 C234.114338,125.704953 234.419597,128.6552 234.724857,131.398412 L235.233622,136.626042 L209.642728,138.955185 L209.846234,135.746144 L196.058695,138.592874 L193.921881,129.897409 L192.293832,130.052685 L190.258771,139.576289 L175.148442,136.626042 L172.401109,144.338091 L161.869668,142.37126 L149.506671,139.835083 L150.727708,136.626042 C148.183882,136.781319 145.589179,136.936595 143.096229,137.247147 L142.994476,137.247147 L142.841846,137.247147 C139.12786,137.454182 135.15949,137.661217 131.49638,138.178804 L125.950839,138.955185 L125.747333,133.209967 C125.49295,127.464749 125.289444,121.719532 125.085938,115.974314 C125.085938,115.508486 125.035061,114.990899 125.035061,114.473311 L124.984185,114.473311 L124.831555,109.400957 C124.526296,101.585391 124.119284,93.7180657 123.457889,85.9024994 L123,80.9854212 L135.871762,79.2256248 L151.338226,77 L150.524202,79.8984882 L157.850422,78.9150725 L171.383579,77.1552762 L170.874813,83.5215984 C170.416925,89.5256096 170.162542,95.5296208 170.060789,101.533632 C170.060789,105.829606 170.162542,110.125579 170.264295,114.421553 C170.416925,114.369794 170.569554,114.369794 170.77306,114.369794 C173.571269,104.639155 175.860713,94.8049988 177.641392,84.8155663 L178.302786,81.03718 L206.488383,77.6211046 L207.302408,82.4346653 C208.167309,87.7658132 209.337469,93.0452024 210.660259,98.3245915 C210.609382,96.8753475 210.558506,95.4778621 210.507629,94.028618 C210.456753,92.4758565 210.405876,88.9562637 209.947987,87.5070196 L208.167309,82.0205956 L213.71285,80.8301451 C220.784688,79.3291423 228.772303,77.9834156 235.99677,78.3974854 C240.524781,78.6045202 245.256298,79.5879359 249.072038,82.1758717 L249.072038,82.1758717 L249.072038,82.1758717 Z" id="Shape" fill="#373435" sketch:type="MSShapeGroup"></path>
            <path d="M266.180651,123.404968 C269.589379,123.870797 272.234958,123.508486 274.168266,122.369794 C276.61034,121.179343 277.62787,119.31603 277.119105,116.831611 C276.864722,115.020056 275.948945,113.570812 274.422649,112.483879 C272.387588,111.138152 269.742008,110.672324 266.536787,111.086394 L266.180651,123.404968 L266.180651,123.404968 Z M254.428173,110.8276 C254.47905,104.823589 254.32642,97.3185747 253.868532,88.3125579 L267.503441,85.9316569 C267.147305,90.0205956 267.045552,94.523604 267.249059,99.4924409 C272.031452,99.4924409 276.203328,100.165304 279.764685,101.56279 C282.817276,102.75324 285.208473,104.461278 286.989152,106.686903 C288.973336,109.326597 289.889114,112.483879 289.787361,116.158748 C289.736484,120.92055 288.261065,124.647177 285.361103,127.442148 C282.7664,130.237119 278.848907,132.20395 273.608625,133.394401 C268.317466,134.533092 261.347381,134.843645 252.647495,134.326058 C253.766778,129.098427 254.377297,121.282861 254.428173,110.8276 L254.428173,110.8276 L254.428173,110.8276 Z M228.175885,108.757251 C231.381106,108.705493 234.026685,107.825594 236.061747,106.117557 C237.588042,104.875347 238.50382,103.270827 238.758203,101.252237 C239.266968,98.7160601 238.249437,97.0597811 235.807364,96.2316417 C233.874056,95.5070196 231.228476,95.6622958 227.819749,96.6457114 L228.175885,108.757251 L228.175885,108.757251 Z M215.20237,111.759257 C215.405876,98.3537491 215.100617,90.3829066 214.286592,87.7949707 C222.986479,85.9316569 229.956563,85.1552762 235.247722,85.4658285 C240.488005,85.724622 244.405497,87.01859 246.949324,89.3477323 C249.849286,91.7286333 251.375582,95.248226 251.426458,99.9582693 C251.477335,103.633138 250.510681,106.945696 248.628249,109.947702 C246.847571,112.380361 244.456374,114.45071 241.403782,116.158748 C237.842425,118.280855 233.568797,119.626582 228.582897,120.351204 C228.328514,123.456727 228.53202,127.959735 229.142539,133.80847 L214.591852,135.154197 C214.897111,130.858224 215.04974,123.042657 215.20237,111.759257 L215.20237,111.759257 L215.20237,111.759257 Z M195.207894,117.556233 L188.543069,117.607992 L191.850043,100.113545 L195.207894,117.556233 L195.207894,117.556233 Z M170.481901,132.410985 L185.846613,135.464749 L187.576415,127.183355 L197.344708,126.199939 L199.328893,134.429575 L214.286592,131.324052 C208.181409,113.881364 204.009534,98.5090252 201.770966,85.2070349 L182.132626,87.6396946 C179.537923,102.494446 175.620431,117.452716 170.481901,132.410985 L170.481901,132.410985 L170.481901,132.410985 Z M136.038492,86.2422092 L143.771724,85.1552762 C142.80507,88.6231102 142.347181,94.3683278 142.398058,102.390929 C142.448934,109.688908 142.855946,116.521059 143.720847,122.835622 L147.48571,122.835622 C148.604994,122.783864 149.876907,122.732105 151.250574,122.732105 L151.14882,103.012034 C151.097944,94.885915 150.945314,89.5030084 150.690932,86.9150725 L157.966275,85.9316569 L165.292495,85 C164.885483,90.6934589 164.580224,96.8009876 164.478471,103.374345 C164.478471,108.653734 164.631101,114.813021 164.885483,121.852207 C167.887198,121.696931 171.143296,121.386378 174.653777,120.972309 L172.313456,129.874808 L168.59947,140.330069 L162.341657,139.191377 L155.931214,137.84565 L156.897868,135.309473 L157.762769,132.876814 C149.012006,133.394401 143.8226,133.80847 142.041922,133.963747 C136.292874,134.326058 132.375381,134.63661 130.289444,134.947162 C129.729802,118.332614 129.424543,110.41353 129.424543,111.086394 C129.068407,102.028618 128.610518,94.1095342 128,87.3291423 L136.038492,86.2422092 L136.038492,86.2422092 Z" id="Shape" fill="#FFCC29" sketch:type="MSShapeGroup"></path>
        </g>
    </g>
</svg>