<svg version="1.1" id="图层_1" xmlns="http://www.w3.org/2000/svg" xmlns:xlink="http://www.w3.org/1999/xlink" x="0px" y="0px"
	 viewBox="0 0 17 17" enable-background="new 0 0 17 17" xml:space="preserve">
<g>
	<g>
		<g>
			<path fill="#ffffff" d="M8.5,17C3.8,17,0,13.2,0,8.5S3.8,0,8.5,0S17,3.8,17,8.5S13.2,17,8.5,17z M8.5,1C4.4,1,1,4.4,1,8.5
				S4.4,16,8.5,16S16,12.6,16,8.5S12.6,1,8.5,1z"/>
		</g>
		<g>
			<path fill="#ffffff" d="M8.5,10.6c-0.3,0-0.7-0.1-0.9-0.4L5.6,8.3c-0.2-0.2-0.2-0.5,0-0.7s0.5-0.2,0.7,0l1.9,1.9
				c0.1,0.1,0.3,0.1,0.5,0l1.9-1.9c0.2-0.2,0.5-0.2,0.7,0s0.2,0.5,0,0.7l-1.9,1.9C9.2,10.4,8.8,10.6,8.5,10.6z"/>
		</g>
	</g>
</g>
</svg>
