<svg version="1.1" id="Icons_-_60px" xmlns="http://www.w3.org/2000/svg" xmlns:xlink="http://www.w3.org/1999/xlink" x="0px"
	 y="0px" viewBox="0 0 36 58" enable-background="new 0 0 36 58" xml:space="preserve">
<g>

		<polygon fill="none" stroke="#f7600e" stroke-width="2" stroke-linecap="round" stroke-linejoin="round" stroke-miterlimit="10" points="
		7.8,5.1 5.5,1 3.3,5.1 1,9.3 1,9.3 1,57 10,57 10,9.3 10,9.3 	"/>
	<rect fill="#f7600e" x="1" y="10" width="9" height="2"/>
	<rect fill="#f7600e" x="1" y="51" width="9" height="2"/>
	<g>
			<rect x="21" y="1" fill="none" stroke="#f7600e" stroke-width="2" stroke-linecap="round" stroke-linejoin="round" stroke-miterlimit="10" width="14" height="56"/>
		<path fill="#f7600e" d="M26,8c0,0.6-0.3,1-0.7,1h-3.6C21.3,9,21,8.6,21,8l0,0c0-0.6,0.3-1,0.7-1h3.6C25.7,7,26,7.4,26,8L26,8z"/>
		<path fill="#f7600e" d="M28,15c0,0.6-0.4,1-1,1h-5c-0.6,0-1-0.4-1-1l0,0c0-0.6,0.4-1,1-1h5C27.6,14,28,14.4,28,15L28,15z"/>
		<path fill="#f7600e" d="M26,22c0,0.6-0.3,1-0.7,1h-3.6c-0.4,0-0.7-0.4-0.7-1l0,0c0-0.6,0.3-1,0.7-1h3.6C25.7,21,26,21.4,26,22L26,22z"/>
		<path fill="#f7600e" d="M28,29c0,0.6-0.4,1-1,1h-5c-0.6,0-1-0.4-1-1l0,0c0-0.6,0.4-1,1-1h5C27.6,28,28,28.4,28,29L28,29z"/>
		<path fill="#f7600e" d="M26,36c0,0.6-0.3,1-0.7,1h-3.6c-0.4,0-0.7-0.4-0.7-1l0,0c0-0.6,0.3-1,0.7-1h3.6C25.7,35,26,35.4,26,36L26,36z"/>
		<path fill="#f7600e" d="M28,43c0,0.6-0.4,1-1,1h-5c-0.6,0-1-0.4-1-1l0,0c0-0.6,0.4-1,1-1h5C27.6,42,28,42.4,28,43L28,43z"/>
		<path fill="#f7600e" d="M26,50c0,0.6-0.3,1-0.7,1h-3.6c-0.4,0-0.7-0.4-0.7-1l0,0c0-0.6,0.3-1,0.7-1h3.6C25.7,49,26,49.4,26,50L26,50z"/>
	</g>
</g>
</svg>
