<svg version="1.1" id="Icons_-_60px" xmlns="http://www.w3.org/2000/svg" xmlns:xlink="http://www.w3.org/1999/xlink" x="0px"
	 y="0px" viewBox="0 0 35 59" enable-background="new 0 0 35 59" xml:space="preserve">
<path fill="none" stroke="#f7600e" stroke-width="2" stroke-miterlimit="10" d="M34,55.2c0,1.6-1.3,2.8-2.8,2.8H3.8
	C2.3,58,1,56.7,1,55.2V3.8C1,2.3,2.3,1,3.8,1h27.3C32.7,1,34,2.3,34,3.8V55.2z"/>
<circle fill="#f7600e" cx="17.5" cy="51.5" r="1.5"/>
<path fill="#f7600e" d="M25,7c0,0.6-0.4,1-1,1H11c-0.6,0-1-0.4-1-1l0,0c0-0.6,0.4-1,1-1h13C24.6,6,25,6.4,25,7L25,7z"/>
</svg>
