<?xml version="1.0" encoding="utf-8"?>
<!-- Generator: Adobe Illustrator 21.0.0, SVG Export Plug-In . SVG Version: 6.00 Build 0)  -->
<svg version="1.1" baseProfile="tiny" id="Слой_1"
	 xmlns="http://www.w3.org/2000/svg" xmlns:xlink="http://www.w3.org/1999/xlink" x="0px" y="0px" viewBox="0 0 200 200"
	 overflow="scroll" xml:space="preserve">
<g>
	<path fill="#2EB398" d="M101,193.5c-52.7,0-95.5-42.8-95.5-95.5C5.5,45.3,48.3,2.5,101,2.5c52.7,0,95.5,42.8,95.5,95.5
		C196.5,150.7,153.7,193.5,101,193.5z"/>
	<path fill="#FFFFFF" d="M101,3c52.4,0,95,42.6,95,95s-42.6,95-95,95S6,150.4,6,98S48.6,3,101,3 M101,2C48,2,5,45,5,98s43,96,96,96
		s96-43,96-96S154,2,101,2L101,2z"/>
</g>
<line fill="#FFFFFF" stroke="#FFFFFF" stroke-width="12" stroke-miterlimit="10" x1="71.7" y1="49.1" x2="134" y2="103"/>
<line fill="none" stroke="#FFFFFF" stroke-width="11" stroke-miterlimit="10" x1="68.9" y1="149.1" x2="137.4" y2="94.8"/>
<line fill="#2EB398" stroke="#2EB398" stroke-width="5" stroke-miterlimit="10" x1="131.5" y1="89.5" x2="141.5" y2="98.8"/>
</svg>
